<svg width="900" height="350" xmlns="http://www.w3.org/2000/svg">
  <!-- Central Manager -->
  <g id="manager">
    <rect x="300" y="20" width="300" height="120" fill="#f3e5f5" stroke="#7b1fa2" stroke-width="2" rx="5"/>
    <text x="450" y="40" text-anchor="middle" font-family="Arial" font-size="14" font-weight="bold" fill="#7b1fa2">Central Manager</text>
    
    <!-- Manager at bottom center -->
    <rect x="410" y="70" width="80" height="25" fill="#ce93d8" stroke="#7b1fa2" rx="3"/>
    <text x="450" y="87" text-anchor="middle" font-family="Arial" font-size="11" fill="#7b1fa2">Manager</text>
  </g>
  
  <!-- Kubernetes Cluster A -->
  <g id="cluster-a">
    <rect x="50" y="200" width="180" height="120" fill="#e3f2fd" stroke="#1976d2" stroke-width="2" rx="5"/>
    <text x="220" y="310" text-anchor="end" font-family="Arial" font-size="14" font-weight="bold" fill="#1976d2">Kubernetes Cluster A</text>
    
    <rect x="95" y="220" width="80" height="25" fill="#90caf9" stroke="#1976d2" rx="3"/>
    <text x="135" y="237" text-anchor="middle" font-family="Arial" font-size="11" fill="#1976d2">Edge 1</text>
    
    <rect x="95" y="255" width="80" height="25" fill="#90caf9" stroke="#1976d2" rx="3"/>
    <text x="135" y="272" text-anchor="middle" font-family="Arial" font-size="11" fill="#1976d2">K8s API Server</text>
    
    <!-- Edge to K8s connection -->
    <line x1="135" y1="245" x2="135" y2="255" stroke="#1976d2" stroke-width="1"/>
    <polygon points="130,250 135,255 140,250" fill="#1976d2"/>
  </g>
  
  <!-- Kubernetes Cluster B -->
  <g id="cluster-b">
    <rect x="360" y="200" width="180" height="120" fill="#e3f2fd" stroke="#1976d2" stroke-width="2" rx="5"/>
    <text x="530" y="310" text-anchor="end" font-family="Arial" font-size="14" font-weight="bold" fill="#1976d2">Kubernetes Cluster B</text>
    
    <rect x="405" y="220" width="80" height="25" fill="#90caf9" stroke="#1976d2" rx="3"/>
    <text x="445" y="237" text-anchor="middle" font-family="Arial" font-size="11" fill="#1976d2">Edge 2</text>
    
    <rect x="405" y="255" width="80" height="25" fill="#90caf9" stroke="#1976d2" rx="3"/>
    <text x="445" y="272" text-anchor="middle" font-family="Arial" font-size="11" fill="#1976d2">K8s API Server</text>
    
    <!-- Edge to K8s connection -->
    <line x1="445" y1="245" x2="445" y2="255" stroke="#1976d2" stroke-width="1"/>
    <polygon points="440,250 445,255 450,250" fill="#1976d2"/>
  </g>
  
  <!-- Kubernetes Cluster C -->
  <g id="cluster-c">
    <rect x="670" y="200" width="180" height="120" fill="#e3f2fd" stroke="#1976d2" stroke-width="2" rx="5"/>
    <text x="840" y="310" text-anchor="end" font-family="Arial" font-size="14" font-weight="bold" fill="#1976d2">Kubernetes Cluster C</text>
    
    <rect x="715" y="220" width="80" height="25" fill="#90caf9" stroke="#1976d2" rx="3"/>
    <text x="755" y="237" text-anchor="middle" font-family="Arial" font-size="11" fill="#1976d2">Edge 3</text>
    
    <rect x="715" y="255" width="80" height="25" fill="#90caf9" stroke="#1976d2" rx="3"/>
    <text x="755" y="272" text-anchor="middle" font-family="Arial" font-size="11" fill="#1976d2">K8s API Server</text>
    
    <!-- Edge to K8s connection -->
    <line x1="755" y1="245" x2="755" y2="255" stroke="#1976d2" stroke-width="1"/>
    <polygon points="750,250 755,255 760,250" fill="#1976d2"/>
  </g>
  
  <!-- Bidirectional Streams -->
  <!-- Edge 1 to Manager -->
  <defs>
    <marker id="arrowhead" markerWidth="6" markerHeight="4" refX="5" refY="2" orient="auto">
      <polygon points="0 0, 6 2, 0 4" fill="#ff6b35"/>
    </marker>
  </defs>
  <line x1="135" y1="220" x2="430" y2="95" stroke="#ff6b35" stroke-width="3" stroke-dasharray="8,4" marker-end="url(#arrowhead)"/>
  <text x="200" y="160" font-family="Arial" font-size="10" fill="#ff6b35" font-weight="bold">Bidirectional Stream</text>
  
  <!-- Edge 2 to Manager -->
  <line x1="445" y1="220" x2="445" y2="95" stroke="#ff6b35" stroke-width="3" stroke-dasharray="8,4" marker-end="url(#arrowhead)"/>
  <text x="460" y="160" font-family="Arial" font-size="10" fill="#ff6b35" font-weight="bold">Bidirectional Stream</text>
  
  <!-- Edge 3 to Manager -->
  <line x1="755" y1="220" x2="470" y2="95" stroke="#ff6b35" stroke-width="3" stroke-dasharray="8,4" marker-end="url(#arrowhead)"/>
  <text x="620" y="160" font-family="Arial" font-size="10" fill="#ff6b35" font-weight="bold">Bidirectional Stream</text>
</svg>